<svg width="64" height="64" fill="none" xmlns="http://www.w3.org/2000/svg">
  <path d="M24.703 4.657a9.6 9.6 0 10-12.268 13.654c.68.29 1.23.817 1.55 1.483l.954 2.151a3.2 3.2 0 002.927 1.906c.08 0 .16-.02.24-.025l9.164 20.679a3.354 3.354 0 00-1.698 1.813 3.55 3.55 0 000 2.274c.112.35.255.688.427 1.013a3.213 3.213 0 00-.486.733 3.374 3.374 0 00.347 3.583c.038.048.088.084.128.13a3.313 3.313 0 00-1.416 2.92c.037.723.268 1.423.667 2.027a3.1 3.1 0 00-.364.453A2.964 2.964 0 0027.382 64h26.832c1.767 0 2.839-1.846 2.933-3.18a5.497 5.497 0 00-1-3.52 5.014 5.014 0 00-2.96-2.027 6.908 6.908 0 00-2.527.06 5.096 5.096 0 00-.95-3.773 4.642 4.642 0 00-4.613-1.849c.035-.188.056-.378.065-.57a4.452 4.452 0 00-1.31-3.247 4.16 4.16 0 00-3.642-1.066 2.105 2.105 0 00-.06-.226l-.863-1.942a3.206 3.206 0 00-4.221-1.63l-9.157-20.66a3.164 3.164 0 00.733-3.613l-.98-2.212a2.848 2.848 0 01-.05-2.027 9.638 9.638 0 00-.91-7.862zM9.638 12.624A7.468 7.468 0 0116.45 2.13a7.492 7.492 0 016.417 3.617 7.397 7.397 0 01.713 6.118 5.351 5.351 0 00-.252 1.693l-8.55 3.789a5.57 5.57 0 00-1.45-.975 7.437 7.437 0 01-3.689-3.748zm7.254 8.455l-.864-1.95 7.798-3.458.863 1.95a1.066 1.066 0 01-.543 1.408l-5.85 2.593a1.053 1.053 0 01-.816.02 1.066 1.066 0 01-.588-.563zm5.198 1.197l1.95-.865 9.076 20.481-3.901 1.727-9.079-20.474 1.954-.869zm30.681 35.096c.672.18 1.255.596 1.643 1.173.436.62.65 1.37.608 2.127-.038.526-.488 1.198-.805 1.198H27.382a.831.831 0 01-.095-1.66l22.522-2.589c.32-.036.635-.089.953-.142a5.765 5.765 0 012.006-.112l.003.005zm-4.779-4.546c.623.804.766 1.88.376 2.82L27.31 58.061c-.03 0-.062 0-.134-.054a1.71 1.71 0 01-.468-1.107 1.232 1.232 0 011.067-1.339l1.632-.343 13.981-2.944c.29-.059.577-.132.864-.206l.301-.075c1.702-.424 2.695-.182 3.435.828l.004.004zm-5.617-5.39c.438.445.676 1.048.658 1.671a1.92 1.92 0 01-.417 1.157l-13.628 2.864a1.437 1.437 0 01-1.432-.509 1.244 1.244 0 01-.107-1.36c.22-.46.561-.598 1.508-.887l9.88-3.022c1.58-.484 2.68-.738 3.535.082l.003.005zm-5.035-3.905l.795 1.813-9.83 2.994c-.15.047-.309.097-.467.15a3.798 3.798 0 01-.222-.525 1.492 1.492 0 01-.037-.915c.156-.427.617-.652 1.354-.975l.146-.065c.009 0 .017 0 .026-.006l5.786-2.56 1.04-.46a1.067 1.067 0 011.406.545l.003.004z" fill="#0C50FF"/>
  <path d="M15.801 5.596a1.067 1.067 0 00-1.163-.96 5.24 5.24 0 00-2.103.738 4.124 4.124 0 00-1.894 4.104c.055.545.513.959 1.06.96h.107a1.069 1.069 0 00.96-1.164 2.172 2.172 0 012.082-2.517 1.067 1.067 0 00.951-1.161z" fill="#0C50FF"/>
</svg>
