<svg width="64" height="64" fill="none" xmlns="http://www.w3.org/2000/svg">
  <path d="M37.712 56.19a2.415 2.415 0 003.37 1.85l10.2-4.506c.505-.222.757-.794.58-1.317l-5.119-15.208a5.154 5.154 0 00-5.759-3.413l-1.6.287a5.097 5.097 0 00-4.158 5.812l2.486 16.495zm2.509-.102a.273.273 0 01-.253-.01.28.28 0 01-.147-.213l-2.494-16.481a3.012 3.012 0 01.037-1.067l1.803 1.425a5.58 5.58 0 011.866 2.651l3.909 11.616-4.721 2.08zm-.465-20.098l1.6-.287a3.014 3.014 0 013.364 1.99l4.81 14.29-2.631 1.162-3.845-11.425a7.678 7.678 0 00-2.57-3.649l-1.955-1.547a2.986 2.986 0 011.227-.534z" fill="#0C50FF"/>
  <path d="M2.734 10.13l15.925 4.692c.216.065.416.171.588.315l5.617 4.68.906.757 7.338 38.146a6.474 6.474 0 008.981 4.701l10.233-4.52a3.562 3.562 0 004.072.998l5.397-2.214a3.557 3.557 0 001.943-4.639l-9.83-23.994.73-.843a3.777 3.777 0 00-.383-5.32l-11.247-9.744a3.773 3.773 0 00-5.325.385l-1.819 2.104-4.088-3.406h-.006l-7.572-6.159a3.75 3.75 0 00-1.316-.692L5.628.292A3.774 3.774 0 00.944 2.845L.18 5.438a3.773 3.773 0 002.553 4.692zm34.055 7.695l2.504-2.896a1.642 1.642 0 012.315-.168l11.247 9.74c.683.594.758 1.628.166 2.313l-1.158 1.339c-.263.304-.334.73-.181 1.103L61.76 53.849a1.423 1.423 0 01-.778 1.856l-5.399 2.213a1.424 1.424 0 01-1.857-.779 1.066 1.066 0 00-1.418-.573l-11.082 4.896a4.343 4.343 0 01-6.022-3.154l-7.41-38.52a1.07 1.07 0 00-.365-.617l-.335-.279 4.086-4.38 4.12 3.431a1.067 1.067 0 001.488-.122v.004zM2.227 6.044l.761-2.595a1.64 1.64 0 012.038-1.11l17.24 5.075c.209.061.403.163.572.3l6.692 5.44-4.075 4.372-4.843-4.037a3.748 3.748 0 00-1.349-.72L3.336 8.078a1.64 1.64 0 01-1.11-2.035z" fill="#0C50FF"/>
  <path d="M7.467 36.791a7.302 7.302 0 007.465-7.465c0-3.4-4.132-9.54-5.854-11.526a2.198 2.198 0 00-3.222 0C4.133 19.787.002 25.926.002 29.326a7.302 7.302 0 007.465 7.465zm0-17.596c1.881 2.169 5.332 7.662 5.332 10.13a5.157 5.157 0 01-5.332 5.333 5.157 5.157 0 01-5.332-5.332c0-2.468 3.452-7.961 5.332-10.131zm23.11.832a1.07 1.07 0 00-.77 1.3l.533 2.089a1.067 1.067 0 002.067-.528l-.533-2.09a1.067 1.067 0 00-1.297-.77zm.913 6.878L33 33.304a1.067 1.067 0 002.077-.488l-1.51-6.398a1.067 1.067 0 00-2.078.49v-.003z" fill="#0C50FF"/>
</svg>
