<svg width="64" height="64" fill="none" xmlns="http://www.w3.org/2000/svg">
  <g clip-path="url(#clip0)" fill="#0C50FF">
    <path d="M20.613 19.203a3.733 3.733 0 10-5.276 5.282 3.733 3.733 0 005.275-5.284l.001.002zm-1.51 3.77a1.6 1.6 0 11-2.262-2.26 1.6 1.6 0 012.263 2.26zm27.962 32.759a4.76 4.76 0 003.388-1.404 4.807 4.807 0 10-3.394 1.404h.006zm-1.887-6.684a2.667 2.667 0 113.771 3.772 2.736 2.736 0 01-3.771 0 2.667 2.667 0 010-3.772z"/>
    <path d="M52.062 4.499a2.135 2.135 0 00-3.017 0l-2.263 2.258-3.017 3.017-10.56 10.56a3.199 3.199 0 000 4.526l.39.387a3.2 3.2 0 002.75.895l.095-.01h.017l-2.07 2.069A67.34 67.34 0 0132 30.451a65.281 65.281 0 01-2.394-2.246l-2.065-2.073c.037 0 .074.006.107.011h.015a3.193 3.193 0 002.735-.894l.39-.389a3.2 3.2 0 000-4.525l-10.56-10.56-3.01-3.018L14.955 4.5a2.185 2.185 0 00-3.017 0L.625 15.806a2.134 2.134 0 000 3.017l2.262 2.263 13.577 13.579a3.201 3.201 0 004.526 0l.388-.39a3.183 3.183 0 00.898-2.582c0-.01.006-.019.006-.03 0-.052-.004-.104-.011-.155 0-.032-.006-.061-.01-.092l2.072 2.066a58.86 58.86 0 011.803 1.898c-4.138 3.23-8.534 6.157-11.094 6.7a8.7 8.7 0 00-1.75.586l-.454-.454a2.133 2.133 0 00-3.018 0l-1.5 1.504a2.134 2.134 0 000 3.017l.402.401a8.994 8.994 0 00.664 8.826 9.49 9.49 0 002.523 2.526 8.937 8.937 0 008.835.67l.398.399a2.132 2.132 0 003.018 0l1.503-1.508a2.134 2.134 0 000-3.017l-.455-.456a8.652 8.652 0 00.585-1.743c.517-2.422 3.176-6.5 6.2-10.443 3.556 4.63 5.76 8.32 6.216 10.436.132.602.328 1.189.584 1.75l-.455.455a2.133 2.133 0 000 3.018l1.508 1.508a2.134 2.134 0 003.018 0l.4-.399a8.942 8.942 0 008.829-.666 9.385 9.385 0 002.52-2.523 8.995 8.995 0 00.669-8.832l.401-.401a2.134 2.134 0 000-3.018l-1.507-1.508a2.133 2.133 0 00-3.016 0l-.456.455a8.132 8.132 0 00-1.746-.582c-2.226-.475-6.15-2.861-11.093-6.712a63.67 63.67 0 011.801-1.89l2.07-2.069c-.006.04-.007.074-.012.117a1.45 1.45 0 00-.01.165c0 .01.006.018.006.028a3.18 3.18 0 00.899 2.56l.388.39a3.2 3.2 0 004.526 0l13.58-13.582 2.262-2.263a2.133 2.133 0 000-3.017L52.062 4.5zm6.788 15.84l-1.509 1.509-11.313-11.32 1.508-1.508 5.654 5.653 5.66 5.667zm-48.043-5.653l5.654-5.653 1.508 1.508-11.31 11.302-1.51-1.509 5.658-5.648zm2.639-8.674l1.51 1.51L3.647 18.827l-1.515-1.511L13.446 6.012zm6.424 26.754l-.389.39a1.066 1.066 0 01-1.51 0L8.168 23.35 19.48 12.036l9.806 9.807a1.067 1.067 0 010 1.508l-.39.388a1.089 1.089 0 01-.93.29c-.023 0-.044 0-.066-.005a6.909 6.909 0 00-.658-.058H27.2c-.145 0-.289 0-.434.01h-.255a6.818 6.818 0 00-1.5.278c-.05.015-.092.02-.143.036l-.022.01c-.014.005-.027.006-.04.012-.166.056-.326.127-.488.196-.046.02-.098.036-.142.055l-.02.01-.106.05c-.117.051-.232.11-.341.177l-.245.14-.087.051-.036.02c-.154.107-.32.214-.462.32l-.028.025c-.07.052-.136.107-.204.16a6.01 6.01 0 00-.977.977 7.494 7.494 0 00-.158.2l-.024.03c-.092.12-.189.262-.304.437-.023.035-.048.07-.07.106l-.126.224c-.042.066-.064.125-.1.192a6.73 6.73 0 00-.419.96c-.007.016-.01.033-.017.048-.006.016 0 .024-.01.034l-.015.039c-.018.064-.03.132-.048.197a6.672 6.672 0 00-.253 1.463v.012c-.017.16-.023.322-.016.484v.256c.007.179.029.358.053.552v.008c0 .03 0 .06.006.09.057.343-.054.694-.3.941zm5.973-.799l-3.152-3.142a4.74 4.74 0 01.512-.831c.017-.023.035-.04.048-.06.013-.02.05-.06.073-.09l.01-.013a5.44 5.44 0 01.297-.333c.105-.107.213-.198.327-.292a.735.735 0 00.12-.093c.03-.02.055-.044.083-.066.237-.18.491-.336.758-.468.013 0 .023-.011.036-.018l3.144 3.152c.61.61 1.387 1.347 2.293 2.162-.82.709-1.687 1.437-2.585 2.167a62.151 62.151 0 00-1.966-2.074h.002zm22.69 12.203a6.216 6.216 0 011.875.702.841.841 0 00.097.04.824.824 0 00.063.025c.234.1.5.1.733 0 .022-.007.042-.016.063-.025.125-.053.237-.128.332-.223l.973-.973 1.509 1.508-.943.943c-.02.02-.026.046-.044.066a1.08 1.08 0 00-.12.18.781.781 0 00-.122.376.989.989 0 00-.013.204c.007.064.019.128.037.19.017.072.04.141.073.207.011.025.011.051.025.075a6.96 6.96 0 01-.227 7.314c-.175.256-.368.5-.577.73-.01.01-.024.016-.033.028a3.04 3.04 0 01-.25.281l-.016.019-.021.019a4.42 4.42 0 01-.28.25c-.013.008-.016.02-.028.03a6.85 6.85 0 01-.735.581 6.96 6.96 0 01-7.308.224c-.024-.015-.05-.015-.075-.026a.967.967 0 00-.205-.072 1.003 1.003 0 00-.194-.038 1.047 1.047 0 00-.2.012.988.988 0 00-.2.04c-.128.05-.249.118-.358.203-.02.018-.047.024-.066.044l-.943.943-1.509-1.509.98-.98c.016-.016.021-.037.036-.053a.965.965 0 00.134-.203c.029-.048.054-.1.075-.151.023-.075.038-.151.045-.229a.73.73 0 00-.03-.388.95.95 0 00-.061-.186c-.01-.023-.01-.048-.023-.07a6.498 6.498 0 01-.706-1.895c-.671-3.14-4.036-7.989-6.94-11.733a111.503 111.503 0 013.084-3.682c3.88 3.037 8.866 6.514 12.093 7.202zM38.161 31.972a71.902 71.902 0 00-2.653 2.843c-.01.012-.023.017-.033.03-.01.012-.006.014-.012.022-4.266 4.8-10.787 12.967-11.758 17.524A6.494 6.494 0 0123 54.278c-.011.022-.01.044-.021.065-.03.068-.053.14-.069.213a.764.764 0 00-.02.394c.006.067.02.133.04.197a1.7 1.7 0 00.206.358c.016.017.021.04.038.057l.982.98-1.51 1.505-.942-.943c-.02-.02-.046-.026-.066-.044a1.457 1.457 0 00-.36-.205 1.114 1.114 0 00-.195-.037 1.022 1.022 0 00-.204-.013 1.048 1.048 0 00-.19.038.97.97 0 00-.214.072c-.024.011-.05.011-.074.026a6.957 6.957 0 01-7.312-.227 6.844 6.844 0 01-.73-.576c-.012-.01-.017-.024-.03-.035-.21-.165-.4-.355-.566-.566-.01-.012-.024-.016-.033-.028a6.549 6.549 0 01-.581-.737 6.951 6.951 0 01-.223-7.307c.013-.024.013-.05.026-.076a1.187 1.187 0 00.058-.798.92.92 0 00-.085-.175 1.026 1.026 0 00-.12-.184c-.018-.02-.025-.046-.044-.065l-.942-.943 1.509-1.508.979.98c.09.087.197.157.312.207a1.053 1.053 0 00.44.104 1.078 1.078 0 00.44-.103c.027-.013.057-.018.085-.034a6.558 6.558 0 011.893-.708c3.283-.699 8.45-4.286 12.877-7.835.012-.01.026-.013.037-.022.012-.01.009-.014.014-.02 1.6-1.288 3.102-2.56 4.382-3.695 1.308-1.16 2.396-2.175 3.093-2.88l3.161-3.15c.311.15.605.331.876.544.033.03.067.06.107.088l.015.011c.113.096.224.19.331.296.107.106.202.22.297.333l.008.01c.028.038.057.073.089.107l.017.024-.026-.024c.016.023.042.052.065.081.084.107.169.224.241.342.082.134.157.271.224.413l.018.035-3.14 3.152zm7.867 1.185a1.068 1.068 0 01-1.51 0l-.388-.39a1.085 1.085 0 01-.289-.93c0-.023 0-.047.005-.07.025-.193.049-.389.058-.655v-.04a5.2 5.2 0 00-.013-.533v-.122a6.77 6.77 0 00-.289-1.574c-.01-.038-.014-.067-.026-.107l-.007-.015a6.862 6.862 0 00-.239-.605c-.01-.024-.019-.052-.029-.074v-.01l-.055-.122a2.924 2.924 0 00-.176-.337l-.131-.227c-.021-.036-.04-.073-.063-.106l-.017-.03c-.107-.155-.213-.32-.327-.463l-.022-.026c-.052-.07-.107-.137-.16-.205a6.26 6.26 0 00-.46-.517 7.256 7.256 0 00-.682-.59l-.012-.01-.054-.044c-.066-.05-.137-.107-.214-.154-.077-.049-.136-.095-.206-.14l-.129-.085-.213-.118a6.934 6.934 0 00-.392-.203c-.037-.017-.08-.044-.115-.06-.018-.007-.04-.013-.057-.022a6.448 6.448 0 00-.604-.237c-.039-.013-.07-.029-.107-.042l-.033-.009a6.956 6.956 0 00-.944-.219c-.054-.01-.106-.015-.152-.022a6.945 6.945 0 00-.534-.053 4.088 4.088 0 00-.334-.016h-.41a6.281 6.281 0 00-.55.053h-.016c-.026 0-.053 0-.08.006a1.092 1.092 0 01-.932-.29l-.388-.39a1.067 1.067 0 010-1.508l9.806-9.805 11.295 11.31-9.805 9.806zm14.33-14.332L49.053 7.518l1.51-1.51 11.305 11.309-1.508 1.508z"/>
    <path d="M43.388 19.202a3.733 3.733 0 105.28 5.277 3.733 3.733 0 00-5.281-5.276v-.001zm3.77 3.772a1.6 1.6 0 11-2.261-2.261 1.6 1.6 0 012.261 2.261zM13.546 47.54a4.8 4.8 0 106.789 0 4.768 4.768 0 00-6.789 0zm5.28 5.28a2.736 2.736 0 01-3.771 0 2.667 2.667 0 113.771 0z"/>
  </g>
  <defs>
    <clipPath id="clip0">
      <path fill="#fff" d="M0 0h64v64H0z"/>
    </clipPath>
  </defs>
</svg>
