<svg width="64" height="64" fill="none" xmlns="http://www.w3.org/2000/svg">
  <g clip-path="url(#clip0)" fill="#0C50FF">
    <path d="M11.302 39.188c-.052 0 .053.007 0 0z"/>
    <path d="M61.57 56.505c-4.334 0-8.609-.482-12.757-1.406.557-1.55.856-3.202.873-4.902.038-3.88-1.403-7.502-4.059-10.198a14.433 14.433 0 00-6.429-3.78 41.479 41.479 0 01-16.297-8.834 1.25 1.25 0 10-1.648 1.88 44.681 44.681 0 005.46 4.1 14.51 14.51 0 011.613 7.102 1.25 1.25 0 102.5.075 17.04 17.04 0 00-.648-5.188 44 44 0 006.435 2.69 14.47 14.47 0 012.142 6.895 1.25 1.25 0 102.497-.12 16.93 16.93 0 00-1.286-5.694c1.446.608 2.768 1.5 3.88 2.629 3.365 3.415 4.2 8.455 2.531 12.747a58.875 58.875 0 01-33.055-23.213 1.25 1.25 0 00-2.051 1.429 61.763 61.763 0 0021.487 19.101 60.812 60.812 0 0012.444 4.961 12.203 12.203 0 01-1.474 1.83c-2.615 2.497-6.539 3.492-10.003 2.536a40.811 40.811 0 01-11.475-5.193 16.866 16.866 0 003.423-.705 1.25 1.25 0 00-.755-2.384c-1.995.633-4.055.82-6.126.56A40.67 40.67 0 017.19 38.163c1.288.503 2.714.85 4.112 1.025.621 0 1.238-.458 1.317-1.09a1.25 1.25 0 00-1.085-1.396 14.257 14.257 0 01-5.67-1.973C2.68 25.23 2.985 14.686 7.085 5.255a44.513 44.513 0 006.607 15.452 1.25 1.25 0 002.07-1.403 42.02 42.02 0 01-6.858-18.21A1.25 1.25 0 006.568.646 43.239 43.239 0 001.9 13.734a43.641 43.641 0 00-.33 13.725c1.277 9.508 5.547 18.128 12.348 24.93A43.5 43.5 0 0033.06 63.554c1.084.3 2.205.445 3.327.445 3.315 0 6.638-1.268 9.057-3.572l.042-.038.033-.037a14.543 14.543 0 002.219-2.93 61.483 61.483 0 0013.833 1.582 1.25 1.25 0 100-2.5z"/>
    <path d="M18.178 25.697c.329 0 .651-.134.884-.366a1.26 1.26 0 00.366-.884 1.26 1.26 0 00-.366-.884 1.26 1.26 0 00-.884-.366 1.26 1.26 0 00-.884.366 1.26 1.26 0 00-.366.884c0 .33.134.651.366.884.233.232.555.366.884.366z"/>
  </g>
  <defs>
    <clipPath id="clip0">
      <path fill="#fff" d="M0 0h64v64H0z"/>
    </clipPath>
  </defs>
</svg>
