<svg width="64" height="64" fill="none" xmlns="http://www.w3.org/2000/svg">
  <path d="M33.743 40.522a3.796 3.796 0 002.78-1.557l9.987-13.807a1.067 1.067 0 00-1.49-1.49l-13.81 9.99a3.794 3.794 0 00-1.553 2.778 3.797 3.797 0 001.102 2.984 3.79 3.79 0 002.984 1.102zm-1.959-3.92c.038-.487.287-.932.68-1.217l8.423-6.094-6.091 8.421a1.669 1.669 0 01-2.53.2 1.668 1.668 0 01-.481-1.31z" fill="#0C50FF"/>
  <path d="M57.636 20.868c-.01-.022-.01-.046-.022-.068-.013-.021-.033-.033-.047-.053a28.997 28.997 0 00-3.803-5.13l2.291-2.29 1.509 1.508 4.525-4.526-4.525-4.524-4.526 4.524 1.51 1.51-2.292 2.29a28.97 28.97 0 00-5.13-3.804c-.02-.014-.032-.034-.053-.047-.022-.013-.046-.012-.068-.023a28.598 28.598 0 00-10.958-3.631v-1.27h1.6a2.669 2.669 0 002.666-2.667A2.67 2.67 0 0037.646 0h-9.6a2.67 2.67 0 00-2.667 2.667 2.67 2.67 0 002.667 2.666h1.6v1.233c-1.152.123-2.302.31-3.44.571a1.066 1.066 0 10.478 2.079 27.121 27.121 0 012.965-.509l1.145-.088c.35-.027.671-.046.985-.061v2.109a1.066 1.066 0 102.134 0V8.565A26.458 26.458 0 0145.066 11.6l-1.052 1.82a1.067 1.067 0 001.847 1.068l1.049-1.817a26.875 26.875 0 018.29 8.29l-1.817 1.049a1.066 1.066 0 001.07 1.847l1.82-1.052a26.474 26.474 0 013.039 11.327h-2.107a1.066 1.066 0 100 2.134h2.107a26.473 26.473 0 01-3.039 11.327l-1.82-1.052a1.067 1.067 0 00-1.067 1.848l1.816 1.048a26.874 26.874 0 01-8.29 8.29l-1.049-1.817a1.065 1.065 0 00-1.457-.39 1.065 1.065 0 00-.39 1.457l1.052 1.82a26.459 26.459 0 01-11.153 3.036v-2.1a1.066 1.066 0 10-2.134 0v2.108a26.914 26.914 0 01-5.094-.658 1.062 1.062 0 00-1.278.801 1.066 1.066 0 00.801 1.278c2.13.49 4.304.738 6.462.738.052 0 .102-.003.155-.004.007 0 .012.004.019.004.008 0 .016-.005.024-.005a28.614 28.614 0 0014.1-3.811c.034-.015.069-.023.1-.042.022-.013.034-.033.054-.047A29.01 29.01 0 0057.55 49.683c.02-.029.046-.051.064-.083.013-.022.011-.046.022-.068A28.596 28.596 0 0061.472 35.2c0-5.216-1.4-10.108-3.836-14.332zm-.073-12.067l1.508 1.508-1.508 1.51-1.51-1.51 1.51-1.508zM31.779 6.422V3.2h-3.733a.535.535 0 01-.534-.533c0-.294.24-.534.534-.534h9.6a.535.535 0 010 1.067h-3.733v3.222a26.528 26.528 0 00-1.067-.022l-.094.002-.08-.002c-.175 0-.35.012-.525.015-.124.003-.24.002-.368.007zm-8.533 8.511h-5.333a1.066 1.066 0 100 2.134h5.333a1.066 1.066 0 100-2.134zm0 7.467H12.579a1.066 1.066 0 100 2.133h10.667a1.066 1.066 0 100-2.133zm0 7.467h-16a1.066 1.066 0 100 2.133h16a1.066 1.066 0 100-2.133zm0 7.466H2.979a1.066 1.066 0 100 2.134h20.267a1.066 1.066 0 100-2.134zm0 7.467H9.379a1.066 1.066 0 100 2.133h13.867a1.066 1.066 0 100-2.133zm0 7.467h-7.467a1.066 1.066 0 100 2.133h7.467a1.066 1.066 0 100-2.133z" fill="#0C50FF"/>
</svg>
