<svg width="64" height="64" fill="none" xmlns="http://www.w3.org/2000/svg">
  <g clip-path="url(#clip0)" fill="#0C50FF">
    <path d="M40.288 1.092A31.992 31.992 0 004.302 47.99a31.788 31.788 0 0019.425 14.906A32.217 32.217 0 0032.06 64a32.004 32.004 0 0027.653-48.002A31.787 31.787 0 0040.288 1.092zm20.562 38.63a29.86 29.86 0 01-54.701 7.202A29.88 29.88 0 0131.956 2.122a30.04 30.04 0 017.777 1.03 29.86 29.86 0 0121.115 36.57h.002z"/>
    <path d="M19.204 9.833a26.8 26.8 0 012.56-1.28 1.066 1.066 0 10-.854-1.955c-.946.412-1.869.874-2.766 1.383A27.441 27.441 0 006.498 21.116a1.066 1.066 0 101.964.833A25.308 25.308 0 0119.204 9.833zm37.747 31.64a1.066 1.066 0 00-1.399.566 25.312 25.312 0 01-10.748 12.118 26.121 26.121 0 01-5.307 2.304 1.067 1.067 0 10.63 2.04 28.39 28.39 0 005.744-2.495 27.443 27.443 0 0011.646-13.135 1.066 1.066 0 00-.566-1.398zm-12.235 6.272c.014-.01.031-.011.047-.02a.905.905 0 00.07-.074 20.298 20.298 0 007.179-18.75c0-.013-.008-.023-.008-.035a19.942 19.942 0 00-7.172-12.53c-.027-.022-.042-.052-.07-.073-.012-.007-.026-.008-.038-.016a20.293 20.293 0 00-19.932-3.164c-.011.005-.023 0-.034.009l-.014.01a18.501 18.501 0 00-5.447 3.141c-.014.01-.031.01-.046.02a.978.978 0 00-.07.074 20.3 20.3 0 00-7.179 18.75c0 .012.008.023.008.035a20.15 20.15 0 0032.706 12.623zm-8.492-10.807a.798.798 0 00-.088.054l-.91.534-1.864 1.076a1.052 1.052 0 00-.51.807 7.602 7.602 0 01-2.08-.069 2.133 2.133 0 00-.968-1.228l-1.992-1.15a2.133 2.133 0 00-1.555-.222 7.302 7.302 0 01-.717-1.012 7.22 7.22 0 01-.512-1.116 2.12 2.12 0 00.581-1.466v-2.304c0-.543-.207-1.065-.58-1.459.242-.648.573-1.26.983-1.819a1 1 0 00.951-.041l.79-.458c.012-.007.026-.008.038-.015a.944.944 0 00.087-.054l.91-.534 1.865-1.077c.289-.172.478-.471.51-.806a7.593 7.593 0 012.071.066c.159.52.508.959.978 1.229l1.986 1.154a2.135 2.135 0 001.564.224c.265.315.503.652.713 1.007.202.357.373.731.512 1.117a2.12 2.12 0 00-.581 1.466v2.304a2.113 2.113 0 00.58 1.458A7.538 7.538 0 0138 36.426a1.048 1.048 0 00-.95.04l-.778.45c-.016.009-.033.013-.05.022zM21.4 46.503l5.345-7.698 1.993 1.15-3.995 8.475-3.343-1.927zM14.01 30.05l9.465.793v2.308l-9.477.79a18.129 18.129 0 01.01-3.891h.002zm28.686-12.69l-5.432 7.823-1.992-1.15 4.058-8.608a18.062 18.062 0 013.368 1.939l-.002-.005zm7.306 16.575l-9.465-.788v-2.308l9.478-.79a18.096 18.096 0 01-.011 3.89l-.002-.004zm-5.656 11.323l-4.967-7.145a9.64 9.64 0 001.608-2.78l8.66.723a18.104 18.104 0 01-5.301 9.202zm3.361-22.328a18.082 18.082 0 011.967 5.012l-8.685.725a9.44 9.44 0 00-.665-1.471 9.611 9.611 0 00-.94-1.322l4.97-7.144a18.082 18.082 0 013.353 4.2zm-15.732-9.064c1.815.003 3.618.277 5.351.813l-3.713 7.874a9.643 9.643 0 00-3.22-.01l-3.712-7.874c1.715-.53 3.5-.8 5.294-.803zm-9.033 2.428a18.056 18.056 0 011.734-.871l4.053 8.612-1.022.594-.96.553-5.439-7.823c.525-.384 1.07-.74 1.634-1.065zm-3.275 2.438l4.965 7.15a9.652 9.652 0 00-1.607 2.78l-8.66-.723a18.104 18.104 0 015.302-9.207zm-3.361 22.327a18.08 18.08 0 01-1.968-5.012l8.686-.724c.18.508.404.999.67 1.467.274.465.588.906.937 1.317l-4.97 7.157a18.085 18.085 0 01-3.355-4.205zm10.384 8.24l3.707-7.866a9.7 9.7 0 001.642.157 9.52 9.52 0 001.58-.147l3.709 7.868a18.1 18.1 0 01-10.638-.013zm12.648-.727l-4.053-8.617 1.023-.595.96-.552 5.438 7.822a17.573 17.573 0 01-3.362 1.942h-.006z"/>
    <path d="M33.111 27.875a4.265 4.265 0 102.59 1.986 4.231 4.231 0 00-2.59-1.986zm.96 4.671a2.133 2.133 0 11-4.121-1.107 2.133 2.133 0 014.12 1.108zM25.609 6.4a1.066 1.066 0 11-2.133 0 1.066 1.066 0 012.133 0z"/>
  </g>
  <defs>
    <clipPath id="clip0">
      <path fill="#fff" d="M0 0h64v64H0z"/>
    </clipPath>
  </defs>
</svg>
