<svg width="32" height="32" fill="none" xmlns="http://www.w3.org/2000/svg">
  <path d="M21.77 17.817a7.557 7.557 0 01-3.188-.7l-4.66.988.974-4.669a7.572 7.572 0 116.867 4.372m-1.496 6.687l-1.293-1.293a1.654 1.654 0 00-2.34 0l-1.015 1.016a.786.786 0 01-.864.174 13.919 13.919 0 01-4.226-2.92 13.916 13.916 0 01-2.912-4.208.81.81 0 01.18-.894l.91-.911c.74-.74.74-1.785.093-2.432l-1.295-1.293a2.204 2.204 0 00-3.117 0l-.719.718c-.817.818-1.157 1.996-.937 3.164.544 2.88 2.219 6.035 4.917 8.735 2.7 2.7 5.854 4.373 8.735 4.917 1.168.22 2.347-.12 3.164-.937l.719-.717a2.208 2.208 0 000-3.119v0z" stroke="#0C50FF" stroke-width="1.5" stroke-linecap="round" stroke-linejoin="round"/>
  <path d="M18.229 10.34a.066.066 0 01.023.077.066.066 0 01-.04.039.067.067 0 01-.076-.022.067.067 0 01.006-.088.066.066 0 01.087-.006zm3.474 0a.067.067 0 01-.017.116.067.067 0 11.017-.116zm3.474 0a.067.067 0 01-.017.116.067.067 0 01-.09-.067.067.067 0 01.107-.049z" stroke="#0C50FF" stroke-width="1.5" stroke-linecap="round" stroke-linejoin="round"/>
</svg>
