<svg width="24" height="25" fill="none" xmlns="http://www.w3.org/2000/svg">
  <path d="M10.048 14.369A12.633 12.633 0 017.41 10.56a.749.749 0 01.166-.827l.819-.819c.671-.671.671-1.62.085-2.206L7.306 5.535a2 2 0 00-2.828 0l-.652.651c-.741.741-1.05 1.81-.85 2.87.494 2.613 2.012 5.474 4.461 7.923 2.449 2.449 5.31 3.967 7.923 4.461 1.06.2 2.129-.109 2.87-.85l.651-.651a2 2 0 000-2.828l-1.173-1.173a1.5 1.5 0 00-2.121 0l-.903.904a.748.748 0 01-.827.166 12.674 12.674 0 01-3.809-2.639v0zM12.92 5.67V3.33m4.17 3.99l1.65-1.64m.01 5.82h2.33" stroke="#131622" stroke-width="1.5" stroke-linecap="round" stroke-linejoin="round"/>
</svg>
