<svg width="266" height="79" fill="none" xmlns="http://www.w3.org/2000/svg">
  <path d="M86.577 57h6.078v-9.482h3.987L104.18 57h7.488l-10.065-12.399 10.065-11.67h-7.634l-7.39 8.801h-3.988v-21.2h-6.078V57zm37.511.389c3.89 0 6.467-1.41 8.315-3.55V57h6.078V32.931h-6.078v3.21c-1.848-2.189-4.425-3.599-8.315-3.599-6.467 0-11.329 5.398-11.329 12.448 0 6.953 4.862 12.399 11.329 12.399zm1.507-5.3c-3.841 0-6.807-3.063-6.807-7.099 0-4.084 2.966-7.148 6.807-7.148 3.842 0 6.808 3.064 6.808 7.148 0 4.036-2.966 7.099-6.808 7.099zm30.216 5.008c1.459 0 2.966-.243 4.571-.73l-.632-5.25a7.757 7.757 0 01-2.577.437c-2.334 0-4.182-1.07-4.182-4.036v-9.287h6.759v-5.3h-6.759V25.93h-5.981v7.001h-5.251v5.3h5.251v10.6c0 5.106 3.647 8.266 8.801 8.266zm8.782 12.059h6.078V53.79c1.897 2.09 4.425 3.598 8.315 3.598 6.467 0 11.329-5.397 11.329-12.399 0-7.05-4.862-12.448-11.329-12.448-3.89 0-6.418 1.459-8.315 3.647V32.93h-6.078v36.225zm12.886-17.067c-3.842 0-6.808-3.063-6.808-7.099 0-4.084 2.966-7.148 6.808-7.148 3.841 0 6.758 3.064 6.758 7.148 0 4.036-2.917 7.099-6.758 7.099zM194.223 57h6.078V45.476c0-4.716 2.869-7.245 5.932-7.245 1.167 0 2.188.195 3.307.73v-6.419c-4.085-.097-7.245.924-9.239 3.55v-3.16h-6.078V57zm30.147.632c7.099 0 12.885-5.64 12.885-12.69 0-7.051-5.786-12.837-12.885-12.837s-12.934 5.786-12.934 12.836c0 7.05 5.835 12.691 12.934 12.691zm0-5.689c-3.744.049-6.661-2.966-6.661-6.953 0-4.036 2.917-7.05 6.661-7.002 3.695-.048 6.613 2.966 6.613 7.002 0 3.987-2.918 7.002-6.613 6.953zm25.141-19.012v-.778c0-5.008 3.55-6.078 6.37-6.078 2.82 0 4.425.681 5.64 1.167l.778-5.835c-1.556-.486-3.841-1.166-6.904-1.166-5.203 0-11.962 1.993-11.962 11.96v.73h-4.522v5.3h4.522V57h6.078V38.231h8.218V57h5.932V32.931h-14.15zM20.38 9.011L55 9l-9.234 16.605H30.169l-8.32 13.878 8.32 13.908h15.627L55 70l-34.605-.08L3 39.456 20.38 9.011zm3.42 5.744L9.69 39.456l14.336 24.513 21.37.127-2.706-4.91-16.357-.155-11.048-19.575 11.267-19.659 16.138.171 2.577-5.229-21.467.015zM58.487 14L73 39.47C68.251 47.972 63.005 56.286 58.653 65L55 59.081 66.504 39.47l-11.47-19.462L58.488 14z" fill="#000"/>
  <path d="M49 30.899L52.371 25 61 39.61 52.42 54l-3.382-5.694 5.223-8.757L49 30.9z" fill="#000"/>
</svg>
