<svg width="32" height="32" fill="none" xmlns="http://www.w3.org/2000/svg">
  <path d="M25.333 22.667H24a1.333 1.333 0 01-1.333-1.334v-6.666A1.333 1.333 0 0124 13.333h1.333A2.666 2.666 0 0128 16v4a2.667 2.667 0 01-2.667 2.667zM8 22.667H6.667A2.667 2.667 0 014 20v-4a2.667 2.667 0 012.667-2.667H8a1.334 1.334 0 011.333 1.334v6.666A1.333 1.333 0 018 22.667z" stroke="#0C50FF" stroke-width="1.5" stroke-linecap="round" stroke-linejoin="round"/>
  <path d="M24.667 13.333v-.666a8.667 8.667 0 10-17.334 0v.666m9.5 15h-1.666a1.667 1.667 0 110-3.333h1.666a1.666 1.666 0 110 3.333v0z" stroke="#0C50FF" stroke-width="1.5" stroke-linecap="round" stroke-linejoin="round"/>
  <path d="M18.5 26.667h2.833A2.667 2.667 0 0024 24v-1.333" stroke="#0C50FF" stroke-width="1.5" stroke-linecap="round" stroke-linejoin="round"/>
</svg>
