<svg width="32" height="32" fill="none" xmlns="http://www.w3.org/2000/svg">
  <path d="M23.103 9.572c0-3.813-3.18-6.905-7.103-6.905-3.922 0-7.102 3.092-7.102 6.905 0 4.03 4.3 8.36 6.209 10.083a1.33 1.33 0 001.787 0c1.908-1.723 6.209-6.052 6.209-10.083v0z" stroke="#0C50FF" stroke-width="1.5" stroke-linecap="round" stroke-linejoin="round"/>
  <path d="M17.672 8.107a2.312 2.312 0 010 3.3 2.387 2.387 0 01-3.344 0 2.312 2.312 0 010-3.299 2.387 2.387 0 013.344 0m-7.597 5.462L4 16v10.667L10.667 24 16 28l5.333-4L28 26.667V16l-6.075-2.43" stroke="#0C50FF" stroke-width="1.5" stroke-linecap="round" stroke-linejoin="round"/>
</svg>
