<svg width="48" height="48" fill="none" xmlns="http://www.w3.org/2000/svg">
  <path d="M24 0c13.255 0 24 10.745 24 24S37.255 48 24 48 0 37.255 0 24 10.745 0 24 0z" fill="#7F4DA0"/>
  <path d="M30.394 20.958c-.117-.948-.408-1.692-.926-2.352-.672-.85-1.53-1.358-2.802-1.66-.83-.2-1.164-.178-1.464.096-.279.257-.334.77-.12 1.104.15.242.323.328.804.423.642.118 1.085.27 1.488.501.855.494 1.253 1.267 1.296 2.518.02.588.07.769.276.977.38.38 1.057.307 1.344-.149.106-.172.122-.247.133-.646a6.349 6.349 0 00-.029-.812z" fill="#fff"/>
  <path d="M33.745 22.028c-.17-2.906-1.306-5.243-3.34-6.888-1.145-.924-2.53-1.56-4.049-1.868-.556-.111-1.58-.2-1.756-.15-.165.048-.4.228-.504.39-.11.176-.136.569-.041.796.152.38.435.515 1.228.584 1.222.107 2.482.536 3.435 1.172a7.204 7.204 0 012.51 2.877c.484 1 .78 2.44.773 3.73-.003.466.069.73.256.922a.862.862 0 001.06.164c.404-.212.499-.585.428-1.73zm3.707 11.188a3.19 3.19 0 00-.284-.569c-.597-.901-3.803-3.41-5.404-4.231-.915-.47-1.592-.627-2.094-.48-.54.152-.824.404-1.729 1.528-.365.45-.739.873-.838.94-.247.17-.73.308-1.07.308-.792-.005-2.227-.517-3.33-1.191-.858-.522-1.957-1.457-2.8-2.382-.995-1.086-1.672-2.044-2.207-3.126-.692-1.39-.867-2.239-.578-2.86.07-.157.166-.323.208-.375.043-.047.488-.413.98-.811.967-.769 1.123-.944 1.303-1.47.227-.67.166-1.353-.185-2.04-.27-.523-.975-1.661-1.487-2.396-.677-.968-2.364-3.036-2.7-3.316-.606-.494-1.383-.58-2.24-.247-.905.351-2.6 1.717-3.325 2.67-.654.864-.905 1.476-.943 2.283-.033.664.024.939.374 1.788 2.743 6.66 6.835 11.978 12.458 16.2 2.936 2.206 5.982 3.886 9.142 5.034 1.842.668 2.643.702 3.585.151.398-.237 1.383-1.247 1.933-1.983.91-1.224 1.246-1.788 1.34-2.239.066-.308.014-.844-.109-1.186z" fill="#fff"/>
  <path d="M37.156 22.695c-.061-1.643-.338-2.992-.915-4.494-.57-1.479-1.146-2.444-2.235-3.748-1.03-1.224-1.829-1.922-3.097-2.7-1.769-1.083-3.922-1.8-6.335-2.102-.822-.105-1.009-.098-1.261.07-.49.32-.483 1.116.008 1.43.162.1.307.136.965.223 1.01.136 1.66.264 2.43.474 3.024.826 5.349 2.516 6.903 5.023 1.3 2.09 1.84 4.18 1.764 6.85-.027.902-.008 1.061.13 1.278.264.404.961.484 1.319.149.222-.205.264-.358.308-1.13.02-.404.025-.998.016-1.323z" fill="#fff"/>
</svg>
