<svg width="48" height="48" fill="none" xmlns="http://www.w3.org/2000/svg">
  <path fill-rule="evenodd" clip-rule="evenodd" d="M16.632 0h14.736C44.816 0 48 3.184 48 16.632v14.736C48 44.816 44.816 48 31.368 48H16.632C3.184 48 0 44.816 0 31.368V16.632C0 3.184 3.184 0 16.632 0z" fill="#4680C2"/>
  <path fill-rule="evenodd" clip-rule="evenodd" d="M39.232 15.321c.237-.745 0-1.287-1.05-1.287h-3.489c-.88 0-1.287.474-1.524.982 0 0-1.796 4.336-4.302 7.148-.813.813-1.186 1.084-1.626 1.084-.238 0-.542-.271-.542-1.017v-6.944c0-.88-.271-1.287-1.017-1.287h-5.487c-.542 0-.88.406-.88.813 0 .847 1.252 1.05 1.388 3.421v5.15c0 1.117-.203 1.32-.644 1.32-1.185 0-4.065-4.37-5.792-9.349-.339-.982-.678-1.355-1.558-1.355H9.186C8.169 14 8 14.474 8 14.982c0 .915 1.186 5.522 5.521 11.62 2.88 4.166 6.979 6.402 10.671 6.402 2.236 0 2.507-.509 2.507-1.355v-3.15c0-1.017.203-1.186.914-1.186.508 0 1.423.27 3.49 2.27 2.37 2.37 2.777 3.454 4.098 3.454h3.49c1.015 0 1.49-.508 1.219-1.49-.305-.982-1.457-2.405-2.947-4.099-.813-.948-2.033-1.998-2.406-2.507-.508-.677-.372-.948 0-1.558-.033 0 4.235-6.03 4.675-8.062z" fill="#fff"/>
</svg>
