<svg width="32" height="32" fill="none" xmlns="http://www.w3.org/2000/svg">
  <path d="M15.78 20l6.667 6.667a2.829 2.829 0 004-4L19.78 16" stroke="#0C50FF" stroke-width="1.5" stroke-linecap="round" stroke-linejoin="round"/>
  <path d="M27.888 7.796c.033.031.056.07.068.113.627 2.09.142 4.44-1.509 6.091-1.668 1.668-4.05 2.145-6.156 1.49L9.161 26.618c-1.083 1.084-2.851 1.165-3.973.12a2.829 2.829 0 01-.074-4.072L16.29 11.489c-.656-2.105-.179-4.488 1.49-6.156 1.65-1.65 4-2.136 6.09-1.509a.267.267 0 01.113.068l.216.216a.266.266 0 010 .377L20.687 8l3.093 3.093 3.515-3.514a.265.265 0 01.377 0l.216.217zM3.911 5.724l.899 2.697a1.333 1.333 0 001.265.912h3.039V6.295a1.333 1.333 0 00-.912-1.266l-2.698-.898a.667.667 0 00-.682.161l-.75.75a.667.667 0 00-.161.682v0zM9.12 9.333L13.788 14" stroke="#0C50FF" stroke-width="1.5" stroke-linecap="round" stroke-linejoin="round"/>
</svg>
