<svg xmlns="http://www.w3.org/2000/svg" width="84" height="34" fill="none"><path fill="#202333" d="M48.25 15.07v12.22h-1.62V4.1h1.62v10.83L55.03 4.1h1.55l-6.67 10.7 7.26 12.48h-1.82l-7.1-12.22zm10.86-4.12h1.53V17h1.2a5.33 5.33 0 013.72 1.27 4.9 4.9 0 011.4 3.82A4.95 4.95 0 0165.5 26a5.46 5.46 0 01-3.76 1.29H59.1V10.95zm1.53 7.26v7.88h.97c1 .04 2-.28 2.79-.93a3.8 3.8 0 001.06-3.02 3.99 3.99 0 00-.97-3 3.79 3.79 0 00-2.72-.93h-1.13zm17.5 9.4c-.67 0-1.32-.18-1.88-.53a4.7 4.7 0 01-1.53-1.56 8.8 8.8 0 01-1.03-2.5 14.29 14.29 0 01-.43-3.41H71.1v7.68h-1.52V10.95h1.52v7.36h2.17c-.02-2 .5-3.98 1.53-5.7a3.98 3.98 0 013.34-1.98c.68 0 1.35.2 1.93.56.63.42 1.16.98 1.54 1.64a9.1 9.1 0 011.02 2.66c.26 1.2.39 2.4.37 3.63.02 1.21-.11 2.43-.37 3.62a9.4 9.4 0 01-1.02 2.65c-.38.67-.9 1.23-1.54 1.65-.58.38-1.25.57-1.93.57zm0-1.3a2.75 2.75 0 002.35-1.76c.74-1.72 1.07-3.58.95-5.45.12-1.86-.2-3.73-.95-5.44a2.75 2.75 0 00-2.35-1.74 2.82 2.82 0 00-2.39 1.74c-.76 1.7-1.1 3.57-.98 5.44a11.6 11.6 0 00.98 5.45 2.82 2.82 0 002.39 1.76zM22.65 34a17 17 0 100-34 17 17 0 000 34z"/><path fill="#F6F2E9" d="M20.41 7.31a8.15 8.15 0 00-5 2.3 5.76 5.76 0 00-1.69 4.11v1.3a5.73 5.73 0 001.66 4.07 8.12 8.12 0 005.74 2.39c-.02 0-.7-.95-.7-.95V7.31zM30.7 27.1a1 1 0 01-.22-.63V13.76a5.8 5.8 0 00-1.66-4.06 8.12 8.12 0 00-5.74-2.39l.7.96v16.19a3.4 3.4 0 003.41 3.4h4.1l-.6-.77z"/></svg>