<svg width="48" height="48" fill="none" xmlns="http://www.w3.org/2000/svg">
  <g clip-path="url(#clip0)" fill-rule="evenodd" clip-rule="evenodd">
    <path d="M23.735 0C13.843 0 6.988.034 3.47 3.47.034 6.988.001 14.164.001 23.735c10.627-.32 15.487-.587 19.363-4.372 3.784-3.876 4.05-8.735 4.371-19.363zM3.47 44.53C.033 41.014 0 33.837 0 24.266c10.627.321 15.487.587 19.363 4.372 3.785 3.876 4.051 8.736 4.372 19.362-9.893 0-16.748-.032-20.266-3.468zM24.265 48c.321-10.627.587-15.487 4.372-19.363 3.876-3.785 8.736-4.051 19.363-4.372-.001 9.571-.034 16.748-3.47 20.266-3.518 3.437-10.372 3.468-20.265 3.468zm0-48c.321 10.628.587 15.487 4.372 19.363 3.876 3.785 8.736 4.051 19.363 4.372-.001-9.57-.034-16.747-3.47-20.265C41.012.034 34.158 0 24.265 0z" fill="#2C3036"/>
    <path d="M28.637 28.637c-3.785 3.876-4.051 8.736-4.372 19.362 9.893 0 16.747-.032 20.265-3.468C47.966 41.013 48 33.836 48 24.265c-10.627.321-15.487.587-19.363 4.372zM0 24.265c0 9.571.033 16.748 3.469 20.266 3.518 3.437 10.373 3.468 20.266 3.468-.32-10.626-.587-15.486-4.372-19.362-3.876-3.785-8.736-4.051-19.363-4.372zM23.735 0C13.843 0 6.988.034 3.47 3.47.034 6.988.001 14.164.001 23.735c10.627-.32 15.487-.587 19.363-4.372 3.784-3.876 4.05-8.735 4.371-19.363zm4.902 19.363C24.852 15.487 24.586 10.628 24.265 0c9.893 0 16.747.034 20.265 3.47C47.966 6.988 48 14.164 48 23.735c-10.627-.32-15.487-.587-19.363-4.372z" fill="url(#paint0_linear)"/>
    <path d="M48 24.265v-.529c-10.627-.322-15.487-.587-19.363-4.373-3.785-3.875-4.051-8.734-4.372-19.362h-.53c-.321 10.628-.587 15.487-4.372 19.362C15.487 23.15 10.627 23.414 0 23.736v.529c10.627.322 15.487.587 19.363 4.372 3.785 3.876 4.051 8.736 4.372 19.364h.53c.32-10.628.587-15.488 4.372-19.364 3.876-3.785 8.736-4.05 19.363-4.372z" fill="#fff"/>
  </g>
  <defs>
    <linearGradient id="paint0_linear" x1="48" y1="47.999" x2="48" y2="0" gradientUnits="userSpaceOnUse">
      <stop stop-color="#fff" stop-opacity=".01"/>
      <stop offset=".475" stop-color="#fff" stop-opacity=".01"/>
      <stop offset=".76" stop-color="#fff" stop-opacity=".043"/>
      <stop offset=".995" stop-color="#fff" stop-opacity=".099"/>
      <stop offset="1" stop-color="#fff" stop-opacity=".1"/>
    </linearGradient>
    <clipPath id="clip0">
      <path fill="#fff" d="M0 0h48v48H0z"/>
    </clipPath>
  </defs>
</svg>
